# xmcd
#
# Track frame offsets:
#	183
#	13283
#	26883
#
# Disc length: 587 seconds
#
# Revision: 0
# Processed by: cddbd v1.5.2PL0 Copyright (c) Steve Scherf et al.
# Submitted via: audiograbber 1.83.01
#
DISCID=21024903
DTITLE=Truck stop - Heiß wie Chili
DYEAR=1994
DGENRE=Country
TTITLE0=Heiß wie Chili
TTITLE1=Spiegel lügen nicht
TTITLE2=Old Texys Town, die Western Stadt
EXTD=
EXTT0=
EXTT1=
EXTT2=
PLAYORDER=
